  0
SECTION
  2
HEADER
  9
$ACADVER
  1
AC1024
  9
$ACADMAINTVER
 70
     6
  9
$DWGCODEPAGE
  3
ANSI_1252
  9
$INSBASE
 10
0.0
 20
0.0
 30
0.0
  9
$EXTMIN
 10
1.000000000000000E+20
 20
1.000000000000000E+20
 30
1.000000000000000E+20
  9
$EXTMAX
 10
-1.000000000000000E+20
 20
-1.000000000000000E+20
 30
-1.000000000000000E+20
  9
$LIMMIN
 10
0.0
 20
0.0
  9
$LIMMAX
 10
12.0
 20
9.0
  9
$ORTHOMODE
 70
     0
  9
$REGENMODE
 70
     1
  9
$FILLMODE
 70
     1
  9
$QTEXTMODE
 70
     0
  9
$MIRRTEXT
 70
     1
  9
$LTSCALE
 40
1.0
  9
$ATTMODE
 70
     1
  9
$TEXTSIZE
 40
0.2
  9
$TRACEWID
 40
0.05
  9
$TEXTSTYLE
  7
Standard
  9
$CLAYER
  8
0
  9
$CELTYPE
  6
ByLayer
  9
$CECOLOR
 62
   256
  9
$CELTSCALE
 40
1.0
  9
$DISPSILH
 70
     0
  9
$DIMSCALE
 40
1.0
  9
$DIMASZ
 40
0.18
  9
$DIMEXO
 40
0.0625
  9
$DIMDLI
 40
0.38
  9
$DIMRND
 40
0.0
  9
$DIMDLE
 40
0.0
  9
$DIMEXE
 40
0.18
  9
$DIMTP
 40
0.0
  9
$DIMTM
 40
0.0
  9
$DIMTXT
 40
0.18
  9
$DIMCEN
 40
0.09
  9
$DIMTSZ
 40
0.0
  9
$DIMTOL
 70
     0
  9
$DIMLIM
 70
     0
  9
$DIMTIH
 70
     1
  9
$DIMTOH
 70
     1
  9
$DIMSE1
 70
     0
  9
$DIMSE2
 70
     0
  9
$DIMTAD
 70
     0
  9
$DIMZIN
 70
     0
  9
$DIMBLK
  1

  9
$DIMASO
 70
     1
  9
$DIMSHO
 70
     1
  9
$DIMPOST
  1

  9
$DIMAPOST
  1

  9
$DIMALT
 70
     0
  9
$DIMALTD
 70
     2
  9
$DIMALTF
 40
25.4
  9
$DIMLFAC
 40
1.0
  9
$DIMTOFL
 70
     0
  9
$DIMTVP
 40
0.0
  9
$DIMTIX
 70
     0
  9
$DIMSOXD
 70
     0
  9
$DIMSAH
 70
     0
  9
$DIMBLK1
  1

  9
$DIMBLK2
  1

  9
$DIMSTYLE
  2
Standard
  9
$DIMCLRD
 70
     0
  9
$DIMCLRE
 70
     0
  9
$DIMCLRT
 70
     0
  9
$DIMTFAC
 40
1.0
  9
$DIMGAP
 40
0.09
  9
$DIMJUST
 70
     0
  9
$DIMSD1
 70
     0
  9
$DIMSD2
 70
     0
  9
$DIMTOLJ
 70
     1
  9
$DIMTZIN
 70
     0
  9
$DIMALTZ
 70
     0
  9
$DIMALTTZ
 70
     0
  9
$DIMUPT
 70
     0
  9
$DIMDEC
 70
     4
  9
$DIMTDEC
 70
     4
  9
$DIMALTU
 70
     2
  9
$DIMALTTD
 70
     2
  9
$DIMTXSTY
  7
Standard
  9
$DIMAUNIT
 70
     0
  9
$DIMADEC
 70
     0
  9
$DIMALTRND
 40
0.0
  9
$DIMAZIN
 70
     0
  9
$DIMDSEP
 70
    46
  9
$DIMATFIT
 70
     3
  9
$DIMFRAC
 70
     0
  9
$DIMLDRBLK
  1

  9
$DIMLUNIT
 70
     2
  9
$DIMLWD
 70
    -2
  9
$DIMLWE
 70
    -2
  9
$DIMTMOVE
 70
     0
  9
$DIMFXL
 40
1.0
  9
$DIMFXLON
 70
     0
  9
$DIMJOGANG
 40
0.7853981633974483
  9
$DIMTFILL
 70
     0
  9
$DIMTFILLCLR
 70
     0
  9
$DIMARCSYM
 70
     0
  9
$DIMLTYPE
  6

  9
$DIMLTEX1
  6

  9
$DIMLTEX2
  6

  9
$DIMTXTDIRECTION
 70
     0
  9
$LUNITS
 70
     2
  9
$LUPREC
 70
     4
  9
$SKETCHINC
 40
0.1
  9
$FILLETRAD
 40
0.5
  9
$AUNITS
 70
     0
  9
$AUPREC
 70
     0
  9
$MENU
  1
.
  9
$ELEVATION
 40
0.0
  9
$PELEVATION
 40
0.0
  9
$THICKNESS
 40
0.0
  9
$LIMCHECK
 70
     0
  9
$CHAMFERA
 40
0.5
  9
$CHAMFERB
 40
0.5
  9
$CHAMFERC
 40
1.0
  9
$CHAMFERD
 40
0.0
  9
$SKPOLY
 70
     0
  9
$TDCREATE
 40
2458856.91558412
  9
$TDUCREATE
 40
2458857.248917454
  9
$TDUPDATE
 40
2458856.915584294
  9
$TDUUPDATE
 40
2458857.248917627
  9
$TDINDWG
 40
0.0000000116
  9
$TDUSRTIMER
 40
0.0000000116
  9
$USRTIMER
 70
     1
  9
$ANGBASE
 50
0.0
  9
$ANGDIR
 70
     0
  9
$PDMODE
 70
     0
  9
$PDSIZE
 40
0.0
  9
$PLINEWID
 40
0.0
  9
$SPLFRAME
 70
     0
  9
$SPLINETYPE
 70
     6
  9
$SPLINESEGS
 70
     8
  9
$HANDSEED
  5
4C
  9
$SURFTAB1
 70
     6
  9
$SURFTAB2
 70
     6
  9
$SURFTYPE
 70
     6
  9
$SURFU
 70
     6
  9
$SURFV
 70
     6
  9
$UCSBASE
  2

  9
$UCSNAME
  2

  9
$UCSORG
 10
0.0
 20
0.0
 30
0.0
  9
$UCSXDIR
 10
1.0
 20
0.0
 30
0.0
  9
$UCSYDIR
 10
0.0
 20
1.0
 30
0.0
  9
$UCSORTHOREF
  2

  9
$UCSORTHOVIEW
 70
     0
  9
$UCSORGTOP
 10
0.0
 20
0.0
 30
0.0
  9
$UCSORGBOTTOM
 10
0.0
 20
0.0
 30
0.0
  9
$UCSORGLEFT
 10
0.0
 20
0.0
 30
0.0
  9
$UCSORGRIGHT
 10
0.0
 20
0.0
 30
0.0
  9
$UCSORGFRONT
 10
0.0
 20
0.0
 30
0.0
  9
$UCSORGBACK
 10
0.0
 20
0.0
 30
0.0
  9
$PUCSBASE
  2

  9
$PUCSNAME
  2

  9
$PUCSORG
 10
0.0
 20
0.0
 30
0.0
  9
$PUCSXDIR
 10
1.0
 20
0.0
 30
0.0
  9
$PUCSYDIR
 10
0.0
 20
1.0
 30
0.0
  9
$PUCSORTHOREF
  2

  9
$PUCSORTHOVIEW
 70
     0
  9
$PUCSORGTOP
 10
0.0
 20
0.0
 30
0.0
  9
$PUCSORGBOTTOM
 10
0.0
 20
0.0
 30
0.0
  9
$PUCSORGLEFT
 10
0.0
 20
0.0
 30
0.0
  9
$PUCSORGRIGHT
 10
0.0
 20
0.0
 30
0.0
  9
$PUCSORGFRONT
 10
0.0
 20
0.0
 30
0.0
  9
$PUCSORGBACK
 10
0.0
 20
0.0
 30
0.0
  9
$USERI1
 70
     0
  9
$USERI2
 70
     0
  9
$USERI3
 70
     0
  9
$USERI4
 70
     0
  9
$USERI5
 70
     0
  9
$USERR1
 40
0.0
  9
$USERR2
 40
0.0
  9
$USERR3
 40
0.0
  9
$USERR4
 40
0.0
  9
$USERR5
 40
0.0
  9
$WORLDVIEW
 70
     1
  9
$SHADEDGE
 70
     3
  9
$SHADEDIF
 70
    70
  9
$TILEMODE
 70
     1
  9
$MAXACTVP
 70
    64
  9
$PINSBASE
 10
0.0
 20
0.0
 30
0.0
  9
$PLIMCHECK
 70
     0
  9
$PEXTMIN
 10
1.000000000000000E+20
 20
1.000000000000000E+20
 30
1.000000000000000E+20
  9
$PEXTMAX
 10
-1.000000000000000E+20
 20
-1.000000000000000E+20
 30
-1.000000000000000E+20
  9
$PLIMMIN
 10
0.0
 20
0.0
  9
$PLIMMAX
 10
12.0
 20
9.0
  9
$UNITMODE
 70
     0
  9
$VISRETAIN
 70
     1
  9
$PLINEGEN
 70
     0
  9
$PSLTSCALE
 70
     1
  9
$TREEDEPTH
 70
  3020
  9
$CMLSTYLE
  2
Standard
  9
$CMLJUST
 70
     0
  9
$CMLSCALE
 40
1.0
  9
$PROXYGRAPHICS
 70
     1
  9
$MEASUREMENT
 70
     0
  9
$CELWEIGHT
370
    -1
  9
$ENDCAPS
280
     0
  9
$JOINSTYLE
280
     0
  9
$LWDISPLAY
290
     1
  9
$INSUNITS
 70
     1
  9
$HYPERLINKBASE
  1

  9
$STYLESHEET
  1

  9
$XEDIT
290
     1
  9
$CEPSNTYPE
380
     0
  9
$PSTYLEMODE
290
     1
  9
$FINGERPRINTGUID
  2
{AC87FC8D-A6FA-4D87-99B5-441E8ED4AAE6}
  9
$VERSIONGUID
  2
{FAEB1C32-E019-11D5-929B-00C0DF256EC4}
  9
$EXTNAMES
290
     1
  9
$PSVPSCALE
 40
0.0
  9
$OLESTARTUP
290
     0
  9
$SORTENTS
280
   127
  9
$INDEXCTL
280
     0
  9
$HIDETEXT
280
     1
  9
$XCLIPFRAME
280
     2
  9
$HALOGAP
280
     0
  9
$OBSCOLOR
 70
   257
  9
$OBSLTYPE
280
     0
  9
$INTERSECTIONDISPLAY
280
     0
  9
$INTERSECTIONCOLOR
 70
   257
  9
$DIMASSOC
280
     2
  9
$PROJECTNAME
  1

  9
$CAMERADISPLAY
290
     0
  9
$LENSLENGTH
 40
50.0
  9
$CAMERAHEIGHT
 40
0.0
  9
$STEPSPERSEC
 40
2.0
  9
$STEPSIZE
 40
6.0
  9
$3DDWFPREC
 40
2.0
  9
$PSOLWIDTH
 40
0.25
  9
$PSOLHEIGHT
 40
4.0
  9
$LOFTANG1
 40
1.570796326794897
  9
$LOFTANG2
 40
1.570796326794897
  9
$LOFTMAG1
 40
0.0
  9
$LOFTMAG2
 40
0.0
  9
$LOFTPARAM
 70
     7
  9
$LOFTNORMALS
280
     1
  9
$LATITUDE
 40
37.795
  9
$LONGITUDE
 40
-122.394
  9
$NORTHDIRECTION
 40
0.0
  9
$TIMEZONE
 70
 -8000
  9
$LIGHTGLYPHDISPLAY
280
     1
  9
$TILEMODELIGHTSYNCH
280
     1
  9
$CMATERIAL
347
3C
  9
$SOLIDHIST
280
     1
  9
$SHOWHIST
280
     1
  9
$DWFFRAME
280
     2
  9
$DGNFRAME
280
     2
  9
$REALWORLDSCALE
290
     1
  9
$INTERFERECOLOR
 62
   256
  9
$CSHADOW
280
     0
  9
$SHADOWPLANELOCATION
 40
0.0
  0
ENDSEC
  0
SECTION
  2
CLASSES
  0
CLASS
  1
ACDBDICTIONARYWDFLT
  2
AcDbDictionaryWithDefault
  3
ObjectDBX Classes
 90
        0
 91
        4
280
     0
281
     0
  0
CLASS
  1
VISUALSTYLE
  2
AcDbVisualStyle
  3
ObjectDBX Classes
 90
     4095
 91
        4
280
     0
281
     0
  0
CLASS
  1
MATERIAL
  2
AcDbMaterial
  3
ObjectDBX Classes
 90
     1153
 91
        4
280
     0
281
     0
  0
CLASS
  1
SUN
  2
AcDbSun
  3
SCENEOE
 90
     1024
 91
        4
280
     0
281
     0
  0
ENDSEC
  0
SECTION
  2
TABLES
  0
TABLE
  2
VPORT
  5
8
330
0
100
AcDbSymbolTable
 70
     1
  0
VPORT
  5
29
330
8
100
AcDbSymbolTableRecord
100
AcDbViewportTableRecord
  2
*Active
 70
     0
 10
0.0
 20
0.0
 11
1.0
 21
1.0
 12
0.0
 22
0.0
 13
0.0
 23
0.0
 14
0.5
 24
0.5
 15
0.5
 25
0.5
 16
0.0
 26
0.0
 36
1.0
 17
1000.0
 27
-1000.0
 37
0.0
 40
2000.0
 41
1.0
 42
50.0
 43
0.0
 44
0.0
 50
0.0
 51
0.0
 71
     0
 72
   100
 73
     1
 74
     3
 75
     0
 76
     0
 77
     0
 78
     0
281
     0
 65
     1
110
0.0
120
0.0
130
0.0
111
1.0
121
0.0
131
0.0
112
0.0
122
1.0
132
0.0
 79
     0
146
0.0
 60
     3
 61
     5
292
     1
282
     1
141
0.0
142
0.0
 63
   250
361
3F
  0
ENDTAB
  0
TABLE
  2
LTYPE
  5
5
330
0
100
AcDbSymbolTable
 70
     1
  0
LTYPE
  5
14
330
5
100
AcDbSymbolTableRecord
100
AcDbLinetypeTableRecord
  2
ByBlock
 70
     0
  3

 72
    65
 73
     0
 40
0.0
  0
LTYPE
  5
15
330
5
100
AcDbSymbolTableRecord
100
AcDbLinetypeTableRecord
  2
ByLayer
 70
     0
  3

 72
    65
 73
     0
 40
0.0
  0
LTYPE
  5
16
330
5
100
AcDbSymbolTableRecord
100
AcDbLinetypeTableRecord
  2
Continuous
 70
     0
  3
Solid line
 72
    65
 73
     0
 40
0.0
  0
ENDTAB
  0
TABLE
  2
LAYER
  5
2
330
0
100
AcDbSymbolTable
 70
     2
  0
LAYER
  5
10
330
2
100
AcDbSymbolTableRecord
100
AcDbLayerTableRecord
  2
0
 70
     0
 62
     7
  6
Continuous
370
    -3
390
F
347
3E
  0
LAYER
  5
40
330
2
100
AcDbSymbolTableRecord
100
AcDbLayerTableRecord
  2
Layer 1
 70
     0
 62
     7
  6
Continuous
370
    -3
390
F
347
3E
  0
ENDTAB
  0
TABLE
  2
STYLE
  5
3
330
0
100
AcDbSymbolTable
 70
     1
  0
STYLE
  5
11
330
3
100
AcDbSymbolTableRecord
100
AcDbTextStyleTableRecord
  2
Standard
 70
     0
 40
0.0
 41
1.0
 50
0.0
 71
     0
 42
0.2
  3
txt
  4

  0
ENDTAB
  0
TABLE
  2
VIEW
  5
6
330
0
100
AcDbSymbolTable
 70
     0
  0
ENDTAB
  0
TABLE
  2
UCS
  5
7
330
0
100
AcDbSymbolTable
 70
     0
  0
ENDTAB
  0
TABLE
  2
APPID
  5
9
330
0
100
AcDbSymbolTable
 70
     1
  0
APPID
  5
12
330
9
100
AcDbSymbolTableRecord
100
AcDbRegAppTableRecord
  2
ACAD
 70
     0
  0
ENDTAB
  0
TABLE
  2
DIMSTYLE
  5
A
330
0
100
AcDbSymbolTable
 70
     1
100
AcDbDimStyleTable
  0
DIMSTYLE
105
27
330
A
100
AcDbSymbolTableRecord
100
AcDbDimStyleTableRecord
  2
Standard
 70
     0
178
     0
340
11
  0
ENDTAB
  0
TABLE
  2
BLOCK_RECORD
  5
1
330
0
100
AcDbSymbolTable
 70
     1
  0
BLOCK_RECORD
  5
1F
330
1
100
AcDbSymbolTableRecord
100
AcDbBlockTableRecord
  2
*Model_Space
340
22
 70
     0
280
     1
281
     0
  0
BLOCK_RECORD
  5
1B
330
1
100
AcDbSymbolTableRecord
100
AcDbBlockTableRecord
  2
*Paper_Space
340
1E
 70
     0
280
     1
281
     0
  0
BLOCK_RECORD
  5
23
330
1
100
AcDbSymbolTableRecord
100
AcDbBlockTableRecord
  2
*Paper_Space0
340
26
 70
     0
280
     1
281
     0
  0
ENDTAB
  0
ENDSEC
  0
SECTION
  2
BLOCKS
  0
BLOCK
  5
20
330
1F
100
AcDbEntity
  8
0
100
AcDbBlockBegin
  2
*Model_Space
 70
     0
 10
0.0
 20
0.0
 30
0.0
  3
*Model_Space
  1

  0
ENDBLK
  5
21
330
1F
100
AcDbEntity
  8
0
100
AcDbBlockEnd
  0
BLOCK
  5
1C
330
1B
100
AcDbEntity
 67
     1
  8
0
100
AcDbBlockBegin
  2
*Paper_Space
 70
     0
 10
0.0
 20
0.0
 30
0.0
  3
*Paper_Space
  1

  0
ENDBLK
  5
1D
330
1B
100
AcDbEntity
 67
     1
  8
0
100
AcDbBlockEnd
  0
BLOCK
  5
24
330
23
100
AcDbEntity
  8
0
100
AcDbBlockBegin
  2
*Paper_Space0
 70
     0
 10
0.0
 20
0.0
 30
0.0
  3
*Paper_Space0
  1

  0
ENDBLK
  5
25
330
23
100
AcDbEntity
  8
0
100
AcDbBlockEnd
  0
ENDSEC
  0
SECTION
  2
ENTITIES
  0
SPLINE
  5
41
330
1F
100
AcDbEntity
  8
Layer 1
370
     0
100
AcDbSpline
210
0.0
220
0.0
230
1.0
 70
    11
 71
     3
 72
   104
 73
   100
 74
     0
 42
0.0000000001
 43
0.0000000001
 12
1.0
 22
0.0
 32
0.0
 13
1.0
 23
0.0
 33
0.0
 40
0.0
 40
0.0
 40
0.0
 40
0.0
 40
1.0
 40
1.0
 40
1.0
 40
2.0
 40
2.0
 40
2.0
 40
3.0
 40
3.0
 40
3.0
 40
4.0
 40
4.0
 40
4.0
 40
5.0
 40
5.0
 40
5.0
 40
6.0
 40
6.0
 40
6.0
 40
7.0
 40
7.0
 40
7.0
 40
8.0
 40
8.0
 40
8.0
 40
9.0
 40
9.0
 40
9.0
 40
10.0
 40
10.0
 40
10.0
 40
11.0
 40
11.0
 40
11.0
 40
12.0
 40
12.0
 40
12.0
 40
13.0
 40
13.0
 40
13.0
 40
14.0
 40
14.0
 40
14.0
 40
15.0
 40
15.0
 40
15.0
 40
16.0
 40
16.0
 40
16.0
 40
17.0
 40
17.0
 40
17.0
 40
18.0
 40
18.0
 40
18.0
 40
19.0
 40
19.0
 40
19.0
 40
20.0
 40
20.0
 40
20.0
 40
21.0
 40
21.0
 40
21.0
 40
22.0
 40
22.0
 40
22.0
 40
23.0
 40
23.0
 40
23.0
 40
24.0
 40
24.0
 40
24.0
 40
25.0
 40
25.0
 40
25.0
 40
26.0
 40
26.0
 40
26.0
 40
27.0
 40
27.0
 40
27.0
 40
28.0
 40
28.0
 40
28.0
 40
29.0
 40
29.0
 40
29.0
 40
30.0
 40
30.0
 40
30.0
 40
31.0
 40
31.0
 40
31.0
 40
32.0
 40
32.0
 40
32.0
 40
33.0
 40
33.0
 40
33.0
 40
33.0
 10
1117.207752400278
 20
-1858.991170908001
 30
0.0
 10
1196.33473056462
 20
-1865.752531184451
 30
0.0
 10
1275.336560295975
 20
-1867.124146895574
 30
0.0
 10
1352.79479977813
 20
-1854.608745826517
 30
0.0
 10
1426.935097933489
 20
-1822.832749579662
 30
0.0
 10
1493.932965851758
 20
-1760.418520819492
 30
0.0
 10
1555.98233936309
 20
-1676.795116219773
 30
0.0
 10
1529.380911086957
 20
-1731.876315566422
 30
0.0
 10
1498.241833836037
 20
-1781.960218004984
 30
0.0
 10
1458.836216664589
 20
-1822.832749579662
 30
0.0
 10
1620.214981639674
 20
-1740.172904320185
 30
0.0
 10
1696.513716709287
 20
-1512.602040353206
 30
0.0
 10
1536.025205843256
 20
-1341.979568102066
 30
0.0
 10
1526.21791683851
 20
-1269.309299572244
 30
0.0
 10
1590.613614423108
 20
-1203.231204012096
 30
0.0
 10
1506.666331136043
 20
-1124.017268381496
 30
0.0
 10
1505.88784656291
 20
-1123.140950623556
 30
0.0
 10
1505.0985187565
 20
-1122.264354138591
 30
0.0
 10
1504.306349438686
 20
-1121.404202547941
 30
0.0
 10
1476.94260275671
 20
-1091.087343065268
 30
0.0
 10
1419.751998697171
 20
-1089.965745527752
 30
0.0
 10
1383.043649867375
 20
-1108.257206362643
 30
0.0
 10
1342.402462753689
 20
-1128.503093825049
 30
0.0
 10
1310.474003628391
 20
-1125.258439811558
 30
0.0
 10
1295.277248921497
 20
-1075.180113178669
 30
0.0
 10
1303.448689032681
 20
-1189.376519567317
 30
0.0
 10
1411.384613489347
 20
-1098.757631990455
 30
0.0
 10
1447.741487544088
 20
-1150.349439653553
 30
0.0
 10
1391.67777683549
 20
-1142.945613574595
 30
0.0
 10
1380.087749796458
 20
-1205.109545462463
 30
0.0
 10
1320.313903694741
 20
-1183.655089837139
 30
0.0
 10
1256.407929488229
 20
-1187.699976486158
 30
0.0
 10
1237.297289934955
 20
-1236.999819791334
 30
0.0
 10
1219.797971297286
 20
-1288.90185864193
 30
0.0
 10
1209.762145794068
 20
-1318.641753939848
 30
0.0
 10
1188.419440586878
 20
-1339.927300985422
 30
0.0
 10
1158.665906785134
 20
-1349.906007360936
 30
0.0
 10
1128.91205751843
 20
-1359.846528133436
 30
0.0
 10
1099.044227268596
 20
-1355.68736340241
 30
0.0
 10
1073.147699631723
 20
-1337.97844159665
 30
0.0
 10
867.6968966261265
 20
-1197.520644636059
 30
0.0
 10
799.5080029957817
 20
-927.6563110253865
 30
0.0
 10
914.9076796541485
 20
-705.9470820851602
 30
0.0
 10
945.225932771933
 20
-647.6839364440166
 30
0.0
 10
974.3724174881936
 20
-589.3338279719337
 30
0.0
 10
989.9351407752984
 20
-530.1218955470649
 30
0.0
 10
999.6877992836853
 20
-492.9634025763426
 30
0.0
 10
994.42905655497
 20
-457.3696831085099
 30
0.0
 10
974.3317233429461
 20
-424.6192579946073
 30
0.0
 10
954.2302092255886
 20
-391.8688328807057
 30
0.0
 10
924.8861070505554
 20
-371.0760757481785
 30
0.0
 10
887.3301493461095
 20
-362.9483957794855
 30
0.0
 10
823.4829865412921
 20
-349.1385867352874
 30
0.0
 10
734.3460848270288
 20
-335.9085298973596
 30
0.0
 10
617.6918625443468
 20
-323.3139706701531
 30
0.0
 10
1104.08807146316
 20
-289.5035466906493
 30
0.0
 10
1239.856003999173
 20
-556.8105653811617
 30
0.0
 10
1430.16886369957
 20
-573.3340607139471
 30
0.0
 10
1481.803880751702
 20
-665.4636544660652
 30
0.0
 10
1499.161884789093
 20
-696.4489013480834
 30
0.0
 10
1550.810838192338
 20
-788.5812823704237
 30
0.0
 10
1525.311496562166
 20
-713.8626507899226
 30
0.0
 10
1499.801563305147
 20
-639.158772127249
 30
0.0
 10
1474.299713131775
 20
-564.4566050554131
 30
0.0
 10
1803.627675177349
 20
-65.03962447174581
 30
0.0
 10
457.4713157899896
 20
59.0440744263351
 30
0.0
 10
482.2071132403016
 20
-327.0868196432748
 30
0.0
 10
278.5933948946131
 20
-506.8002481417006
 30
0.0
 10
399.9009725809929
 20
-895.5974076536768
 30
0.0
 10
562.196753559203
 20
-1310.753500283989
 30
0.0
 10
612.2070720620322
 20
-1573.355892199908
 30
0.0
 10
554.2117816241853
 20
-1765.138484333442
 30
0.0
 10
409.4399034496964
 20
-1900.0
 30
0.0
 10
630.2303979568314
 20
-1735.26786605879
 30
0.0
 10
624.0094893901705
 20
-1532.586489626066
 30
0.0
 10
602.32647760083
 20
-1307.786729784257
 30
0.0
 10
629.834326848214
 20
-1145.738458408054
 30
0.0
 10
345.5218866211162
 20
-753.6383904995346
 30
0.0
 10
644.7030202255401
 20
-824.6524612273643
 30
0.0
 10
736.482806179567
 20
-846.4349780158864
 30
0.0
 10
837.646500176721
 20
-1004.676391628571
 30
0.0
 10
781.3160477078309
 20
-1200.471248968093
 30
0.0
 10
735.5342981228641
 20
-1359.607101615278
 30
0.0
 10
767.1687087186083
 20
-1546.212617906833
 30
0.0
 10
841.7457384928921
 20
-1680.622038331887
 30
0.0
 10
859.087308436945
 20
-1711.864551044691
 30
0.0
 10
879.9645090562381
 20
-1739.410585895086
 30
0.0
 10
903.8974048213886
 20
-1762.988105302489
 30
0.0
 10
878.2960491010735
 20
-1707.607553126383
 30
0.0
 10
863.1307905476924
 20
-1646.543478096084
 30
0.0
 10
853.6025072922139
 20
-1582.441557173584
 30
0.0
 10
884.8285743214528
 20
-1677.981935910477
 30
0.0
 10
924.6887683188052
 20
-1758.295457037413
 30
0.0
 10
976.620922146778
 20
-1817.263783534501
 30
0.0
 10
1018.545633427781
 20
-1840.378337346261
 30
0.0
 10
1065.896616147993
 20
-1854.608745826517
 30
0.0
 10
1117.207752400278
 20
-1858.991170908001
 30
0.0
 10
1117.207752400278
 20
-1858.991170908001
 30
0.0
 10
1117.207752400278
 20
-1858.991170908001
 30
0.0
 10
1117.207752400278
 20
-1858.991170908001
 30
0.0
  0
SPLINE
  5
42
330
1F
100
AcDbEntity
  8
Layer 1
370
     0
100
AcDbSpline
210
0.0
220
0.0
230
1.0
 70
    11
 71
     3
 72
    23
 73
    19
 74
     0
 42
0.0000000001
 43
0.0000000001
 12
1.0
 22
0.0
 32
0.0
 13
1.0
 23
0.0
 33
0.0
 40
0.0
 40
0.0
 40
0.0
 40
0.0
 40
1.0
 40
1.0
 40
1.0
 40
2.0
 40
2.0
 40
2.0
 40
3.0
 40
3.0
 40
3.0
 40
4.0
 40
4.0
 40
4.0
 40
5.0
 40
5.0
 40
5.0
 40
6.0
 40
6.0
 40
6.0
 40
6.0
 10
1513.762442395404
 20
-980.5639956610949
 30
0.0
 10
1440.669904262686
 20
-856.4708231788754
 30
0.0
 10
1440.90124769115
 20
-775.9733442461493
 30
0.0
 10
1515.64580088472
 20
-779.3933248091071
 30
0.0
 10
1508.108770672803
 20
-796.4954574400763
 30
0.0
 10
1503.486891993283
 20
-814.8998027189773
 30
0.0
 10
1501.110744128637
 20
-834.3644255905028
 30
0.0
 10
1515.049882511157
 20
-840.5677741976087
 30
0.0
 10
1532.971221685222
 20
-840.1867543581993
 30
0.0
 10
1553.908331590559
 20
-834.9006963813044
 30
0.0
 10
1532.206366911465
 20
-846.3368661040568
 30
0.0
 10
1513.892886641814
 20
-852.0463104277424
 30
0.0
 10
1499.657182707624
 20
-850.7750364792792
 30
0.0
 10
1497.39810019232
 20
-890.8609993646505
 30
0.0
 10
1503.685624360145
 20
-934.8505341965774
 30
0.0
 10
1513.762442395404
 20
-980.5639956610949
 30
0.0
 10
1513.762442395404
 20
-980.5639956610949
 30
0.0
 10
1513.762442395404
 20
-980.5639956610949
 30
0.0
 10
1513.762442395404
 20
-980.5639956610949
 30
0.0
  0
SPLINE
  5
43
330
1F
100
AcDbEntity
  8
Layer 1
370
     0
100
AcDbSpline
210
0.0
220
0.0
230
1.0
 70
    11
 71
     3
 72
    29
 73
    25
 74
     0
 42
0.0000000001
 43
0.0000000001
 12
1.0
 22
0.0
 32
0.0
 13
1.0
 23
0.0
 33
0.0
 40
0.0
 40
0.0
 40
0.0
 40
0.0
 40
1.0
 40
1.0
 40
1.0
 40
2.0
 40
2.0
 40
2.0
 40
3.0
 40
3.0
 40
3.0
 40
4.0
 40
4.0
 40
4.0
 40
5.0
 40
5.0
 40
5.0
 40
6.0
 40
6.0
 40
6.0
 40
7.0
 40
7.0
 40
7.0
 40
8.0
 40
8.0
 40
8.0
 40
8.0
 10
1387.099430907761
 20
-740.5786358721998
 30
0.0
 10
1387.099430907761
 20
-740.5786358721998
 30
0.0
 10
1372.596961073596
 20
-769.8516626565606
 30
0.0
 10
1372.596961073596
 20
-769.8516626565606
 30
0.0
 10
1372.596961073596
 20
-769.8516626565606
 30
0.0
 10
1312.69517926867
 20
-756.5223623492147
 30
0.0
 10
1312.69517926867
 20
-756.5223623492147
 30
0.0
 10
1270.91065390973
 20
-747.2215369933874
 30
0.0
 10
1233.579071458194
 20
-746.4020795479846
 30
0.0
 10
1191.416332726381
 20
-753.8234652423062
 30
0.0
 10
1191.416332726381
 20
-753.8234652423062
 30
0.0
 10
1059.154209479864
 20
-777.1615575419837
 30
0.0
 10
1059.154209479864
 20
-777.1615575419837
 30
0.0
 10
1059.154209479864
 20
-777.1615575419837
 30
0.0
 10
1160.995767595119
 20
-739.8001512990668
 30
0.0
 10
1160.995767595119
 20
-739.8001512990668
 30
0.0
 10
1220.873021422089
 20
-717.821689413905
 30
0.0
 10
1277.973875380467
 20
-714.4858844116643
 30
0.0
 10
1340.001508184063
 20
-729.3286558003074
 30
0.0
 10
1340.001508184063
 20
-729.3286558003074
 30
0.0
 10
1387.099430907761
 20
-740.5786358721998
 30
0.0
 10
1387.099430907761
 20
-740.5786358721998
 30
0.0
 10
1387.099430907761
 20
-740.5786358721998
 30
0.0
 10
1387.099430907761
 20
-740.5786358721998
 30
0.0
 10
1387.099430907761
 20
-740.5786358721998
 30
0.0
  0
SPLINE
  5
44
330
1F
100
AcDbEntity
  8
Layer 1
370
     0
100
AcDbSpline
210
0.0
220
0.0
230
1.0
 70
    11
 71
     3
 72
    20
 73
    16
 74
     0
 42
0.0000000001
 43
0.0000000001
 12
1.0
 22
0.0
 32
0.0
 13
1.0
 23
0.0
 33
0.0
 40
0.0
 40
0.0
 40
0.0
 40
0.0
 40
1.0
 40
1.0
 40
1.0
 40
2.0
 40
2.0
 40
2.0
 40
3.0
 40
3.0
 40
3.0
 40
4.0
 40
4.0
 40
4.0
 40
5.0
 40
5.0
 40
5.0
 40
5.0
 10
1353.486042793302
 20
-807.6063527278675
 30
0.0
 10
1329.881487460356
 20
-818.87249896705
 30
0.0
 10
1306.290311024479
 20
-830.1222003119192
 30
0.0
 10
1282.701921858825
 20
-841.3746889270114
 30
0.0
 10
1282.701921858825
 20
-841.3746889270114
 30
0.0
 10
1262.698519653299
 20
-877.3179320807412
 30
0.0
 10
1262.698519653299
 20
-877.3179320807412
 30
0.0
 10
1262.698519653299
 20
-877.3179320807412
 30
0.0
 10
1072.905485849391
 20
-850.6484801395072
 30
0.0
 10
1072.905485849391
 20
-850.6484801395072
 30
0.0
 10
1174.537441243918
 20
-788.4249165109431
 30
0.0
 10
1259.97117574062
 20
-821.9538261979787
 30
0.0
 10
1353.486042793302
 20
-807.6063527278675
 30
0.0
 10
1353.486042793302
 20
-807.6063527278675
 30
0.0
 10
1353.486042793302
 20
-807.6063527278675
 30
0.0
 10
1353.486042793302
 20
-807.6063527278675
 30
0.0
  0
SPLINE
  5
45
330
1F
100
AcDbEntity
  8
Layer 1
370
     0
100
AcDbSpline
210
0.0
220
0.0
230
1.0
 70
    11
 71
     3
 72
    14
 73
    10
 74
     0
 42
0.0000000001
 43
0.0000000001
 12
1.0
 22
0.0
 32
0.0
 13
1.0
 23
0.0
 33
0.0
 40
0.0
 40
0.0
 40
0.0
 40
0.0
 40
1.0
 40
1.0
 40
1.0
 40
2.0
 40
2.0
 40
2.0
 40
3.0
 40
3.0
 40
3.0
 40
3.0
 10
631.2034340160735
 20
-872.3150607584485
 30
0.0
 10
582.013966614496
 20
-825.6990811958976
 30
0.0
 10
530.1526219101715
 20
-873.9277616255777
 30
0.0
 10
529.0923442907624
 20
-948.9541215222234
 30
0.0
 10
492.1297954829279
 20
-851.36705267453
 30
0.0
 10
603.9935439629971
 20
-795.4786612629223
 30
0.0
 10
631.2034340160735
 20
-872.3150607584485
 30
0.0
 10
631.2034340160735
 20
-872.3150607584485
 30
0.0
 10
631.2034340160735
 20
-872.3150607584485
 30
0.0
 10
631.2034340160735
 20
-872.3150607584485
 30
0.0
  0
SPLINE
  5
46
330
1F
100
AcDbEntity
  8
Layer 1
370
     0
100
AcDbSpline
210
0.0
220
0.0
230
1.0
 70
    11
 71
     3
 72
    14
 73
    10
 74
     0
 42
0.0000000001
 43
0.0000000001
 12
1.0
 22
0.0
 32
0.0
 13
1.0
 23
0.0
 33
0.0
 40
0.0
 40
0.0
 40
0.0
 40
0.0
 40
1.0
 40
1.0
 40
1.0
 40
2.0
 40
2.0
 40
2.0
 40
3.0
 40
3.0
 40
3.0
 40
3.0
 10
732.8760785117038
 20
-1049.93692168194
 30
0.0
 10
734.2630241743991
 20
-1132.738358180552
 30
0.0
 10
697.6243638222459
 20
-1219.171045362975
 30
0.0
 10
587.597983919235
 20
-1107.2501578419
 30
0.0
 10
654.9646345357778
 20
-1127.99135826468
 30
0.0
 10
699.1228003316928
 20
-1115.524734740684
 30
0.0
 10
732.8760785117038
 20
-1049.93692168194
 30
0.0
 10
732.8760785117038
 20
-1049.93692168194
 30
0.0
 10
732.8760785117038
 20
-1049.93692168194
 30
0.0
 10
732.8760785117038
 20
-1049.93692168194
 30
0.0
  0
SPLINE
  5
47
330
1F
100
AcDbEntity
  8
Layer 1
370
     0
100
AcDbSpline
210
0.0
220
0.0
230
1.0
 70
    11
 71
     3
 72
    17
 73
    13
 74
     0
 42
0.0000000001
 43
0.0000000001
 12
1.0
 22
0.0
 32
0.0
 13
1.0
 23
0.0
 33
0.0
 40
0.0
 40
0.0
 40
0.0
 40
0.0
 40
1.0
 40
1.0
 40
1.0
 40
2.0
 40
2.0
 40
2.0
 40
3.0
 40
3.0
 40
3.0
 40
4.0
 40
4.0
 40
4.0
 40
4.0
 10
598.7074858525657
 20
-1018.373316228761
 30
0.0
 10
545.2348201919303
 20
-981.3249204318263
 30
0.0
 10
527.9765999925257
 20
-904.1061074617792
 30
0.0
 10
647.5446422891237
 20
-909.392165438674
 30
0.0
 10
621.1118431937002
 20
-928.6878797347181
 30
0.0
 10
623.417473179963
 20
-959.3330796495966
 30
0.0
 10
657.1980742214564
 20
-1008.16605394709
 30
0.0
 10
604.9283944192266
 20
-973.1426099667733
 30
0.0
 10
590.0273687065037
 20
-992.1241989087466
 30
0.0
 10
598.7074858525657
 20
-1018.373316228761
 30
0.0
 10
598.7074858525657
 20
-1018.373316228761
 30
0.0
 10
598.7074858525657
 20
-1018.373316228761
 30
0.0
 10
598.7074858525657
 20
-1018.373316228761
 30
0.0
  0
SPLINE
  5
48
330
1F
100
AcDbEntity
  8
Layer 1
370
     0
100
AcDbSpline
210
0.0
220
0.0
230
1.0
 70
    11
 71
     3
 72
    17
 73
    13
 74
     0
 42
0.0000000001
 43
0.0000000001
 12
1.0
 22
0.0
 32
0.0
 13
1.0
 23
0.0
 33
0.0
 40
0.0
 40
0.0
 40
0.0
 40
0.0
 40
1.0
 40
1.0
 40
1.0
 40
2.0
 40
2.0
 40
2.0
 40
3.0
 40
3.0
 40
3.0
 40
4.0
 40
4.0
 40
4.0
 40
4.0
 10
1495.813815797874
 20
-1340.934341742239
 30
0.0
 10
1464.094985478061
 20
-1325.876671439057
 30
0.0
 10
1422.081877876124
 20
-1332.779625046383
 30
0.0
 10
1376.159928598967
 20
-1348.054981159441
 30
0.0
 10
1338.422798330063
 20
-1360.608567831507
 30
0.0
 10
1298.611660288625
 20
-1348.071426054168
 30
0.0
 10
1274.911801619659
 20
-1316.110355059864
 30
0.0
 10
1273.085282137294
 20
-1313.665919013012
 30
0.0
 10
1271.264358500961
 20
-1311.205316798467
 30
0.0
 10
1269.440647594405
 20
-1308.750289124502
 30
0.0
 10
1384.780422024091
 20
-1282.962464374848
 30
0.0
 10
1529.552328205638
 20
-1230.281940931452
 30
0.0
 10
1495.813815797874
 20
-1340.934341742239
 30
0.0
  0
HATCH
  5
49
330
1F
100
AcDbEntity
  8
Layer 1
 62
   250
420
  2301728
100
AcDbHatch
 10
0.0
 20
0.0
 30
0.0
210
0.0
220
0.0
230
1.0
  2
SOLID
 70
     1
 71
     0
 91
        8
 92
        1
 93
        1
 72
     4
 94
        3
 73
     0
 74
     1
 95
      104
 96
      100
 40
0.0
 40
0.0
 40
0.0
 40
0.0
 40
1.0
 40
1.0
 40
1.0
 40
2.0
 40
2.0
 40
2.0
 40
3.0
 40
3.0
 40
3.0
 40
4.0
 40
4.0
 40
4.0
 40
5.0
 40
5.0
 40
5.0
 40
6.0
 40
6.0
 40
6.0
 40
7.0
 40
7.0
 40
7.0
 40
8.0
 40
8.0
 40
8.0
 40
9.0
 40
9.0
 40
9.0
 40
10.0
 40
10.0
 40
10.0
 40
11.0
 40
11.0
 40
11.0
 40
12.0
 40
12.0
 40
12.0
 40
13.0
 40
13.0
 40
13.0
 40
14.0
 40
14.0
 40
14.0
 40
15.0
 40
15.0
 40
15.0
 40
16.0
 40
16.0
 40
16.0
 40
17.0
 40
17.0
 40
17.0
 40
18.0
 40
18.0
 40
18.0
 40
19.0
 40
19.0
 40
19.0
 40
20.0
 40
20.0
 40
20.0
 40
21.0
 40
21.0
 40
21.0
 40
22.0
 40
22.0
 40
22.0
 40
23.0
 40
23.0
 40
23.0
 40
24.0
 40
24.0
 40
24.0
 40
25.0
 40
25.0
 40
25.0
 40
26.0
 40
26.0
 40
26.0
 40
27.0
 40
27.0
 40
27.0
 40
28.0
 40
28.0
 40
28.0
 40
29.0
 40
29.0
 40
29.0
 40
30.0
 40
30.0
 40
30.0
 40
31.0
 40
31.0
 40
31.0
 40
32.0
 40
32.0
 40
32.0
 40
33.0
 40
33.0
 40
33.0
 40
33.0
 10
1117.207752400278
 20
-1858.991170908001
 10
1196.33473056462
 20
-1865.752531184451
 10
1275.336560295975
 20
-1867.124146895574
 10
1352.79479977813
 20
-1854.608745826517
 10
1426.935097933489
 20
-1822.832749579662
 10
1493.932965851758
 20
-1760.418520819492
 10
1555.98233936309
 20
-1676.795116219773
 10
1529.380911086957
 20
-1731.876315566422
 10
1498.241833836037
 20
-1781.960218004984
 10
1458.836216664589
 20
-1822.832749579662
 10
1620.214981639674
 20
-1740.172904320185
 10
1696.513716709287
 20
-1512.602040353206
 10
1536.025205843256
 20
-1341.979568102066
 10
1526.21791683851
 20
-1269.309299572244
 10
1590.613614423108
 20
-1203.231204012096
 10
1506.666331136043
 20
-1124.017268381496
 10
1505.88784656291
 20
-1123.140950623556
 10
1505.0985187565
 20
-1122.264354138591
 10
1504.306349438686
 20
-1121.404202547941
 10
1476.94260275671
 20
-1091.087343065268
 10
1419.751998697171
 20
-1089.965745527752
 10
1383.043649867375
 20
-1108.257206362643
 10
1342.402462753689
 20
-1128.503093825049
 10
1310.474003628391
 20
-1125.258439811558
 10
1295.277248921497
 20
-1075.180113178669
 10
1303.448689032681
 20
-1189.376519567317
 10
1411.384613489347
 20
-1098.757631990455
 10
1447.741487544088
 20
-1150.349439653553
 10
1391.67777683549
 20
-1142.945613574595
 10
1380.087749796458
 20
-1205.109545462463
 10
1320.313903694741
 20
-1183.655089837139
 10
1256.407929488229
 20
-1187.699976486158
 10
1237.297289934955
 20
-1236.999819791334
 10
1219.797971297286
 20
-1288.90185864193
 10
1209.762145794068
 20
-1318.641753939848
 10
1188.419440586878
 20
-1339.927300985422
 10
1158.665906785134
 20
-1349.906007360936
 10
1128.91205751843
 20
-1359.846528133436
 10
1099.044227268596
 20
-1355.68736340241
 10
1073.147699631723
 20
-1337.97844159665
 10
867.6968966261265
 20
-1197.520644636059
 10
799.5080029957817
 20
-927.6563110253865
 10
914.9076796541485
 20
-705.9470820851602
 10
945.225932771933
 20
-647.6839364440166
 10
974.3724174881936
 20
-589.3338279719337
 10
989.9351407752984
 20
-530.1218955470649
 10
999.6877992836853
 20
-492.9634025763426
 10
994.42905655497
 20
-457.3696831085099
 10
974.3317233429461
 20
-424.6192579946073
 10
954.2302092255886
 20
-391.8688328807057
 10
924.8861070505554
 20
-371.0760757481785
 10
887.3301493461095
 20
-362.9483957794855
 10
823.4829865412921
 20
-349.1385867352874
 10
734.3460848270288
 20
-335.9085298973596
 10
617.6918625443468
 20
-323.3139706701531
 10
1104.08807146316
 20
-289.5035466906493
 10
1239.856003999173
 20
-556.8105653811617
 10
1430.16886369957
 20
-573.3340607139471
 10
1481.803880751702
 20
-665.4636544660652
 10
1499.161884789093
 20
-696.4489013480834
 10
1550.810838192338
 20
-788.5812823704237
 10
1525.311496562166
 20
-713.8626507899226
 10
1499.801563305147
 20
-639.158772127249
 10
1474.299713131775
 20
-564.4566050554131
 10
1803.627675177349
 20
-65.03962447174581
 10
457.4713157899896
 20
59.0440744263351
 10
482.2071132403016
 20
-327.0868196432748
 10
278.5933948946131
 20
-506.8002481417006
 10
399.9009725809929
 20
-895.5974076536768
 10
562.196753559203
 20
-1310.753500283989
 10
612.2070720620322
 20
-1573.355892199908
 10
554.2117816241853
 20
-1765.138484333442
 10
409.4399034496964
 20
-1900.0
 10
630.2303979568314
 20
-1735.26786605879
 10
624.0094893901705
 20
-1532.586489626066
 10
602.32647760083
 20
-1307.786729784257
 10
629.834326848214
 20
-1145.738458408054
 10
345.5218866211162
 20
-753.6383904995346
 10
644.7030202255401
 20
-824.6524612273643
 10
736.482806179567
 20
-846.4349780158864
 10
837.646500176721
 20
-1004.676391628571
 10
781.3160477078309
 20
-1200.471248968093
 10
735.5342981228641
 20
-1359.607101615278
 10
767.1687087186083
 20
-1546.212617906833
 10
841.7457384928921
 20
-1680.622038331887
 10
859.087308436945
 20
-1711.864551044691
 10
879.9645090562381
 20
-1739.410585895086
 10
903.8974048213886
 20
-1762.988105302489
 10
878.2960491010735
 20
-1707.607553126383
 10
863.1307905476924
 20
-1646.543478096084
 10
853.6025072922139
 20
-1582.441557173584
 10
884.8285743214528
 20
-1677.981935910477
 10
924.6887683188052
 20
-1758.295457037413
 10
976.620922146778
 20
-1817.263783534501
 10
1018.545633427781
 20
-1840.378337346261
 10
1065.896616147993
 20
-1854.608745826517
 10
1117.207752400278
 20
-1858.991170908001
 10
1117.207752400278
 20
-1858.991170908001
 10
1117.207752400278
 20
-1858.991170908001
 10
1117.207752400278
 20
-1858.991170908001
 97
        0
 97
        0
 92
        1
 93
        1
 72
     4
 94
        3
 73
     0
 74
     1
 95
       23
 96
       19
 40
0.0
 40
0.0
 40
0.0
 40
0.0
 40
1.0
 40
1.0
 40
1.0
 40
2.0
 40
2.0
 40
2.0
 40
3.0
 40
3.0
 40
3.0
 40
4.0
 40
4.0
 40
4.0
 40
5.0
 40
5.0
 40
5.0
 40
6.0
 40
6.0
 40
6.0
 40
6.0
 10
1513.762442395404
 20
-980.5639956610949
 10
1440.669904262686
 20
-856.4708231788754
 10
1440.90124769115
 20
-775.9733442461493
 10
1515.64580088472
 20
-779.3933248091071
 10
1508.108770672803
 20
-796.4954574400763
 10
1503.486891993283
 20
-814.8998027189773
 10
1501.110744128637
 20
-834.3644255905028
 10
1515.049882511157
 20
-840.5677741976087
 10
1532.971221685222
 20
-840.1867543581993
 10
1553.908331590559
 20
-834.9006963813044
 10
1532.206366911465
 20
-846.3368661040568
 10
1513.892886641814
 20
-852.0463104277424
 10
1499.657182707624
 20
-850.7750364792792
 10
1497.39810019232
 20
-890.8609993646505
 10
1503.685624360145
 20
-934.8505341965774
 10
1513.762442395404
 20
-980.5639956610949
 10
1513.762442395404
 20
-980.5639956610949
 10
1513.762442395404
 20
-980.5639956610949
 10
1513.762442395404
 20
-980.5639956610949
 97
        0
 97
        0
 92
        1
 93
        1
 72
     4
 94
        3
 73
     0
 74
     1
 95
       29
 96
       25
 40
0.0
 40
0.0
 40
0.0
 40
0.0
 40
1.0
 40
1.0
 40
1.0
 40
2.0
 40
2.0
 40
2.0
 40
3.0
 40
3.0
 40
3.0
 40
4.0
 40
4.0
 40
4.0
 40
5.0
 40
5.0
 40
5.0
 40
6.0
 40
6.0
 40
6.0
 40
7.0
 40
7.0
 40
7.0
 40
8.0
 40
8.0
 40
8.0
 40
8.0
 10
1387.099430907761
 20
-740.5786358721998
 10
1387.099430907761
 20
-740.5786358721998
 10
1372.596961073596
 20
-769.8516626565606
 10
1372.596961073596
 20
-769.8516626565606
 10
1372.596961073596
 20
-769.8516626565606
 10
1312.69517926867
 20
-756.5223623492147
 10
1312.69517926867
 20
-756.5223623492147
 10
1270.91065390973
 20
-747.2215369933874
 10
1233.579071458194
 20
-746.4020795479846
 10
1191.416332726381
 20
-753.8234652423062
 10
1191.416332726381
 20
-753.8234652423062
 10
1059.154209479864
 20
-777.1615575419837
 10
1059.154209479864
 20
-777.1615575419837
 10
1059.154209479864
 20
-777.1615575419837
 10
1160.995767595119
 20
-739.8001512990668
 10
1160.995767595119
 20
-739.8001512990668
 10
1220.873021422089
 20
-717.821689413905
 10
1277.973875380467
 20
-714.4858844116643
 10
1340.001508184063
 20
-729.3286558003074
 10
1340.001508184063
 20
-729.3286558003074
 10
1387.099430907761
 20
-740.5786358721998
 10
1387.099430907761
 20
-740.5786358721998
 10
1387.099430907761
 20
-740.5786358721998
 10
1387.099430907761
 20
-740.5786358721998
 10
1387.099430907761
 20
-740.5786358721998
 97
        0
 97
        0
 92
        1
 93
        1
 72
     4
 94
        3
 73
     0
 74
     1
 95
       20
 96
       16
 40
0.0
 40
0.0
 40
0.0
 40
0.0
 40
1.0
 40
1.0
 40
1.0
 40
2.0
 40
2.0
 40
2.0
 40
3.0
 40
3.0
 40
3.0
 40
4.0
 40
4.0
 40
4.0
 40
5.0
 40
5.0
 40
5.0
 40
5.0
 10
1353.486042793302
 20
-807.6063527278675
 10
1329.881487460356
 20
-818.87249896705
 10
1306.290311024479
 20
-830.1222003119192
 10
1282.701921858825
 20
-841.3746889270114
 10
1282.701921858825
 20
-841.3746889270114
 10
1262.698519653299
 20
-877.3179320807412
 10
1262.698519653299
 20
-877.3179320807412
 10
1262.698519653299
 20
-877.3179320807412
 10
1072.905485849391
 20
-850.6484801395072
 10
1072.905485849391
 20
-850.6484801395072
 10
1174.537441243918
 20
-788.4249165109431
 10
1259.97117574062
 20
-821.9538261979787
 10
1353.486042793302
 20
-807.6063527278675
 10
1353.486042793302
 20
-807.6063527278675
 10
1353.486042793302
 20
-807.6063527278675
 10
1353.486042793302
 20
-807.6063527278675
 97
        0
 97
        0
 92
        1
 93
        1
 72
     4
 94
        3
 73
     0
 74
     1
 95
       14
 96
       10
 40
0.0
 40
0.0
 40
0.0
 40
0.0
 40
1.0
 40
1.0
 40
1.0
 40
2.0
 40
2.0
 40
2.0
 40
3.0
 40
3.0
 40
3.0
 40
3.0
 10
631.2034340160735
 20
-872.3150607584485
 10
582.013966614496
 20
-825.6990811958976
 10
530.1526219101715
 20
-873.9277616255777
 10
529.0923442907624
 20
-948.9541215222234
 10
492.1297954829279
 20
-851.36705267453
 10
603.9935439629971
 20
-795.4786612629223
 10
631.2034340160735
 20
-872.3150607584485
 10
631.2034340160735
 20
-872.3150607584485
 10
631.2034340160735
 20
-872.3150607584485
 10
631.2034340160735
 20
-872.3150607584485
 97
        0
 97
        0
 92
        1
 93
        1
 72
     4
 94
        3
 73
     0
 74
     1
 95
       14
 96
       10
 40
0.0
 40
0.0
 40
0.0
 40
0.0
 40
1.0
 40
1.0
 40
1.0
 40
2.0
 40
2.0
 40
2.0
 40
3.0
 40
3.0
 40
3.0
 40
3.0
 10
732.8760785117038
 20
-1049.93692168194
 10
734.2630241743991
 20
-1132.738358180552
 10
697.6243638222459
 20
-1219.171045362975
 10
587.597983919235
 20
-1107.2501578419
 10
654.9646345357778
 20
-1127.99135826468
 10
699.1228003316928
 20
-1115.524734740684
 10
732.8760785117038
 20
-1049.93692168194
 10
732.8760785117038
 20
-1049.93692168194
 10
732.8760785117038
 20
-1049.93692168194
 10
732.8760785117038
 20
-1049.93692168194
 97
        0
 97
        0
 92
        1
 93
        1
 72
     4
 94
        3
 73
     0
 74
     1
 95
       17
 96
       13
 40
0.0
 40
0.0
 40
0.0
 40
0.0
 40
1.0
 40
1.0
 40
1.0
 40
2.0
 40
2.0
 40
2.0
 40
3.0
 40
3.0
 40
3.0
 40
4.0
 40
4.0
 40
4.0
 40
4.0
 10
598.7074858525657
 20
-1018.373316228761
 10
545.2348201919303
 20
-981.3249204318263
 10
527.9765999925257
 20
-904.1061074617792
 10
647.5446422891237
 20
-909.392165438674
 10
621.1118431937002
 20
-928.6878797347181
 10
623.417473179963
 20
-959.3330796495966
 10
657.1980742214564
 20
-1008.16605394709
 10
604.9283944192266
 20
-973.1426099667733
 10
590.0273687065037
 20
-992.1241989087466
 10
598.7074858525657
 20
-1018.373316228761
 10
598.7074858525657
 20
-1018.373316228761
 10
598.7074858525657
 20
-1018.373316228761
 10
598.7074858525657
 20
-1018.373316228761
 97
        0
 97
        0
 92
        1
 93
        1
 72
     4
 94
        3
 73
     0
 74
     1
 95
       17
 96
       13
 40
0.0
 40
0.0
 40
0.0
 40
0.0
 40
1.0
 40
1.0
 40
1.0
 40
2.0
 40
2.0
 40
2.0
 40
3.0
 40
3.0
 40
3.0
 40
4.0
 40
4.0
 40
4.0
 40
4.0
 10
1495.813815797874
 20
-1340.934341742239
 10
1464.094985478061
 20
-1325.876671439057
 10
1422.081877876124
 20
-1332.779625046383
 10
1376.159928598967
 20
-1348.054981159441
 10
1338.422798330063
 20
-1360.608567831507
 10
1298.611660288625
 20
-1348.071426054168
 10
1274.911801619659
 20
-1316.110355059864
 10
1273.085282137294
 20
-1313.665919013012
 10
1271.264358500961
 20
-1311.205316798467
 10
1269.440647594405
 20
-1308.750289124502
 10
1384.780422024091
 20
-1282.962464374848
 10
1529.552328205638
 20
-1230.281940931452
 10
1495.813815797874
 20
-1340.934341742239
 97
        0
 97
        0
 75
     0
 76
     1
 98
        0
  0
ENDSEC
  0
SECTION
  2
OBJECTS
  0
DICTIONARY
  5
C
330
0
100
AcDbDictionary
281
     1
  3
ACAD_GROUP
350
D
  3
ACAD_LAYOUT
350
1A
  3
ACAD_MATERIAL
350
3B
  3
ACAD_MLEADERSTYLE
350
4B
  3
ACAD_MLINESTYLE
350
17
  3
ACAD_PLOTSETTINGS
350
19
  3
ACAD_PLOTSTYLENAME
350
E
  3
ACAD_TABLESTYLE
350
4A
  3
ACAD_VISUALSTYLE
350
2A
  0
SUN
  5
3F
330
29
100
AcDbSun
 90
        1
290
     0
 63
     7
421
 16777215
 40
1.0
291
     1
 91
  2455826
 92
 54000000
292
     0
 70
     2
 71
   256
280
     1
  0
DICTIONARY
  5
D
102
{ACAD_REACTORS
330
C
102
}
330
C
100
AcDbDictionary
281
     1
  0
DICTIONARY
  5
1A
102
{ACAD_REACTORS
330
C
102
}
330
C
100
AcDbDictionary
281
     1
  3
Layout1
350
1E
  3
Layout2
350
26
  3
Model
350
22
  0
DICTIONARY
  5
3B
102
{ACAD_REACTORS
330
C
102
}
330
C
100
AcDbDictionary
281
     1
  3
ByBlock
350
3D
  3
ByLayer
350
3C
  3
Global
350
3E
  0
DICTIONARY
  5
4B
102
{ACAD_REACTORS
330
C
102
}
330
C
100
AcDbDictionary
281
     1
  0
DICTIONARY
  5
17
102
{ACAD_REACTORS
330
C
102
}
330
C
100
AcDbDictionary
281
     1
  3
Standard
350
18
  0
DICTIONARY
  5
19
102
{ACAD_REACTORS
330
C
102
}
330
C
100
AcDbDictionary
281
     1
  0
ACDBDICTIONARYWDFLT
  5
E
102
{ACAD_REACTORS
330
C
102
}
330
C
100
AcDbDictionary
281
     1
  3
Normal
350
F
100
AcDbDictionaryWithDefault
340
F
  0
DICTIONARY
  5
4A
102
{ACAD_REACTORS
330
C
102
}
330
C
100
AcDbDictionary
281
     1
  0
DICTIONARY
  5
2A
102
{ACAD_REACTORS
330
C
102
}
330
C
100
AcDbDictionary
281
     1
  3
2dWireframe
350
2F
  3
3D Hidden
350
31
  3
3dWireframe
350
30
  3
Basic
350
32
  3
Brighten
350
36
  3
ColorChange
350
3A
  3
Conceptual
350
34
  3
Dim
350
35
  3
Facepattern
350
39
  3
Flat
350
2B
  3
FlatWithEdges
350
2C
  3
Gouraud
350
2D
  3
GouraudWithEdges
350
2E
  3
Linepattern
350
38
  3
Realistic
350
33
  3
Thicken
350
37
  0
LAYOUT
  5
1E
102
{ACAD_REACTORS
330
1A
102
}
330
1A
100
AcDbPlotSettings
  1

  2
none_device
  4

  6

 40
0.0
 41
0.0
 42
0.0
 43
0.0
 44
0.0
 45
0.0
 46
0.0
 47
0.0
 48
0.0
 49
0.0
140
0.0
141
0.0
142
1.0
143
1.0
 70
   688
 72
     0
 73
     0
 74
     5
  7

 75
    16
 76
     0
 77
     2
 78
   300
147
1.0
148
0.0
149
0.0
100
AcDbLayout
  1
Layout1
 70
     1
 71
     1
 10
0.0
 20
0.0
 11
12.0
 21
9.0
 12
0.0
 22
0.0
 32
0.0
 14
1.000000000000000E+20
 24
1.000000000000000E+20
 34
1.000000000000000E+20
 15
-1.000000000000000E+20
 25
-1.000000000000000E+20
 35
-1.000000000000000E+20
146
0.0
 13
0.0
 23
0.0
 33
0.0
 16
1.0
 26
0.0
 36
0.0
 17
0.0
 27
1.0
 37
0.0
 76
     0
330
1B
  0
LAYOUT
  5
26
102
{ACAD_REACTORS
330
1A
102
}
330
1A
100
AcDbPlotSettings
  1

  2
none_device
  4

  6

 40
0.0
 41
0.0
 42
0.0
 43
0.0
 44
0.0
 45
0.0
 46
0.0
 47
0.0
 48
0.0
 49
0.0
140
0.0
141
0.0
142
1.0
143
1.0
 70
   688
 72
     0
 73
     0
 74
     5
  7

 75
    16
 76
     0
 77
     2
 78
   300
147
1.0
148
0.0
149
0.0
100
AcDbLayout
  1
Layout2
 70
     1
 71
     2
 10
0.0
 20
0.0
 11
0.0
 21
0.0
 12
0.0
 22
0.0
 32
0.0
 14
0.0
 24
0.0
 34
0.0
 15
0.0
 25
0.0
 35
0.0
146
0.0
 13
0.0
 23
0.0
 33
0.0
 16
1.0
 26
0.0
 36
0.0
 17
0.0
 27
1.0
 37
0.0
 76
     0
330
23
  0
LAYOUT
  5
22
102
{ACAD_REACTORS
330
1A
102
}
330
1A
100
AcDbPlotSettings
  1

  2
none_device
  4

  6

 40
0.0
 41
0.0
 42
0.0
 43
0.0
 44
0.0
 45
0.0
 46
0.0
 47
0.0
 48
0.0
 49
0.0
140
0.0
141
0.0
142
1.0
143
1.0
 70
  1712
 72
     0
 73
     0
 74
     0
  7

 75
     0
 76
     0
 77
     2
 78
   300
147
1.0
148
0.0
149
0.0
100
AcDbLayout
  1
Model
 70
     1
 71
     0
 10
0.0
 20
0.0
 11
12.0
 21
9.0
 12
0.0
 22
0.0
 32
0.0
 14
1.000000000000000E+20
 24
1.000000000000000E+20
 34
1.000000000000000E+20
 15
-1.000000000000000E+20
 25
-1.000000000000000E+20
 35
-1.000000000000000E+20
146
0.0
 13
0.0
 23
0.0
 33
0.0
 16
1.0
 26
0.0
 36
0.0
 17
0.0
 27
1.0
 37
0.0
 76
     0
330
1F
331
29
  0
MATERIAL
  5
3D
102
{ACAD_REACTORS
330
3B
102
}
330
3B
100
AcDbMaterial
  1
ByBlock
 72
     1
 94
      127
  0
MATERIAL
  5
3C
102
{ACAD_REACTORS
330
3B
102
}
330
3B
100
AcDbMaterial
  1
ByLayer
 72
     1
 94
      127
  0
MATERIAL
  5
3E
102
{ACAD_REACTORS
330
3B
102
}
330
3B
100
AcDbMaterial
  1
Global
 72
     1
 94
      127
  0
MLINESTYLE
  5
18
102
{ACAD_REACTORS
330
17
102
}
330
17
100
AcDbMlineStyle
  2
Standard
 70
     0
  3

 62
   256
 51
90.0
 52
90.0
 71
     2
 49
0.5
 62
   256
  6
BYLAYER
 49
-0.5
 62
   256
  6
BYLAYER
  0
ACDBPLACEHOLDER
  5
F
102
{ACAD_REACTORS
330
E
102
}
330
E
  0
VISUALSTYLE
  5
2F
102
{ACAD_REACTORS
330
2A
102
}
330
2A
100
AcDbVisualStyle
  2
2dWireframe
 70
     4
177
     2
291
     0
 71
     0
176
     1
 72
     2
176
     1
 73
     0
176
     1
 90
        0
176
     1
 40
-0.6
176
     1
 41
-30.0
176
     1
 62
     5
 63
     7
421
 16777215
176
     1
 74
     1
176
     1
 91
        4
176
     1
 64
     7
176
     1
 65
   257
176
     1
 75
     1
176
     1
175
     1
176
     1
 42
1.0
176
     1
 92
        0
176
     1
 66
   257
176
     1
 43
1.0
176
     1
 76
     1
176
     1
 77
     6
176
     1
 78
     2
176
     1
 67
     7
176
     1
 79
     5
176
     1
170
     0
176
     1
171
     0
176
     1
290
     0
176
     1
 93
        1
176
     1
 44
0.0
176
     1
173
     0
176
     1
  0
VISUALSTYLE
  5
31
102
{ACAD_REACTORS
330
2A
102
}
330
2A
100
AcDbVisualStyle
  2
3D Hidden
 70
     6
177
     2
291
     0
 71
     1
176
     1
 72
     2
176
     1
 73
     2
176
     1
 90
        0
176
     1
 40
-0.6
176
     1
 41
-30.0
176
     1
 62
     5
 63
     7
421
 16777215
176
     1
 74
     2
176
     1
 91
        2
176
     1
 64
     7
176
     1
 65
   257
176
     1
 75
     2
176
     1
175
     1
176
     1
 42
40.0
176
     1
 92
        0
176
     1
 66
   257
176
     1
 43
1.0
176
     1
 76
     1
176
     1
 77
     6
176
     1
 78
     2
176
     1
 67
     7
176
     1
 79
     3
176
     1
170
     0
176
     1
171
     0
176
     1
290
     0
176
     1
 93
        1
176
     1
 44
0.0
176
     1
173
     0
176
     1
  0
VISUALSTYLE
  5
30
102
{ACAD_REACTORS
330
2A
102
}
330
2A
100
AcDbVisualStyle
  2
3dWireframe
 70
     5
177
     2
291
     0
 71
     0
176
     1
 72
     2
176
     1
 73
     0
176
     1
 90
        0
176
     1
 40
-0.6
176
     1
 41
-30.0
176
     1
 62
     5
 63
     7
421
 16777215
176
     1
 74
     1
176
     1
 91
        4
176
     1
 64
     7
176
     1
 65
   257
176
     1
 75
     1
176
     1
175
     1
176
     1
 42
1.0
176
     1
 92
        0
176
     1
 66
   257
176
     1
 43
1.0
176
     1
 76
     1
176
     1
 77
     6
176
     1
 78
     2
176
     1
 67
     7
176
     1
 79
     5
176
     1
170
     0
176
     1
171
     0
176
     1
290
     0
176
     1
 93
        1
176
     1
 44
0.0
176
     1
173
     0
176
     1
  0
VISUALSTYLE
  5
32
102
{ACAD_REACTORS
330
2A
102
}
330
2A
100
AcDbVisualStyle
  2
Basic
 70
     7
177
     2
291
     1
 71
     1
176
     1
 72
     0
176
     1
 73
     1
176
     1
 90
        0
176
     1
 40
-0.6
176
     1
 41
-30.0
176
     1
 62
     5
 63
     7
421
 16777215
176
     1
 74
     0
176
     1
 91
        4
176
     1
 64
     7
176
     1
 65
   257
176
     1
 75
     1
176
     1
175
     1
176
     1
 42
1.0
176
     1
 92
        8
176
     1
 66
     7
176
     1
 43
1.0
176
     1
 76
     1
176
     1
 77
     6
176
     1
 78
     2
176
     1
 67
     7
176
     1
 79
     5
176
     1
170
     0
176
     1
171
     0
176
     1
290
     0
176
     1
 93
        1
176
     1
 44
0.0
176
     1
173
     0
176
     1
  0
VISUALSTYLE
  5
36
102
{ACAD_REACTORS
330
2A
102
}
330
2A
100
AcDbVisualStyle
  2
Brighten
 70
    12
177
     2
291
     1
 71
     2
176
     1
 72
     2
176
     1
 73
     0
176
     1
 90
        0
176
     1
 40
-0.6
176
     1
 41
-30.0
176
     1
 62
     5
 63
     7
421
 16777215
176
     1
 74
     1
176
     1
 91
        4
176
     1
 64
     7
176
     1
 65
   257
176
     1
 75
     1
176
     1
175
     1
176
     1
 42
1.0
176
     1
 92
        8
176
     1
 66
     7
176
     1
 43
1.0
176
     1
 76
     1
176
     1
 77
     6
176
     1
 78
     2
176
     1
 67
     7
176
     1
 79
     5
176
     1
170
     0
176
     1
171
     0
176
     1
290
     0
176
     1
 93
        1
176
     1
 44
50.0
176
     1
173
     0
176
     1
  0
VISUALSTYLE
  5
3A
102
{ACAD_REACTORS
330
2A
102
}
330
2A
100
AcDbVisualStyle
  2
ColorChange
 70
    16
177
     2
291
     1
 71
     2
176
     1
 72
     2
176
     1
 73
     3
176
     1
 90
        0
176
     1
 40
-0.6
176
     1
 41
-30.0
176
     1
 62
     5
 63
     8
421
  8421504
176
     1
 74
     1
176
     1
 91
        4
176
     1
 64
     7
176
     1
 65
   257
176
     1
 75
     1
176
     1
175
     1
176
     1
 42
1.0
176
     1
 92
        8
176
     1
 66
     8
424
  8421504
176
     1
 43
1.0
176
     1
 76
     1
176
     1
 77
     6
176
     1
 78
     2
176
     1
 67
     7
176
     1
 79
     5
176
     1
170
     0
176
     1
171
     0
176
     1
290
     0
176
     1
 93
        1
176
     1
 44
0.0
176
     1
173
     0
176
     1
  0
VISUALSTYLE
  5
34
102
{ACAD_REACTORS
330
2A
102
}
330
2A
100
AcDbVisualStyle
  2
Conceptual
 70
     9
177
     2
291
     0
 71
     3
176
     1
 72
     2
176
     1
 73
     0
176
     1
 90
        0
176
     1
 40
-0.6
176
     1
 41
-30.0
176
     1
 62
     5
 63
     7
421
 16777215
176
     1
 74
     2
176
     1
 91
        2
176
     1
 64
     7
176
     1
 65
   257
176
     1
 75
     1
176
     1
175
     1
176
     1
 42
40.0
176
     1
 92
        8
176
     1
 66
     7
176
     1
 43
1.0
176
     1
 76
     1
176
     1
 77
     6
176
     1
 78
     2
176
     1
 67
     7
176
     1
 79
     3
176
     1
170
     0
176
     1
171
     0
176
     1
290
     0
176
     1
 93
        1
176
     1
 44
0.0
176
     1
173
     0
176
     1
  0
VISUALSTYLE
  5
35
102
{ACAD_REACTORS
330
2A
102
}
330
2A
100
AcDbVisualStyle
  2
Dim
 70
    11
177
     2
291
     1
 71
     2
176
     1
 72
     2
176
     1
 73
     0
176
     1
 90
        0
176
     1
 40
-0.6
176
     1
 41
-30.0
176
     1
 62
     5
 63
     7
421
 16777215
176
     1
 74
     1
176
     1
 91
        4
176
     1
 64
     7
176
     1
 65
   257
176
     1
 75
     1
176
     1
175
     1
176
     1
 42
1.0
176
     1
 92
        8
176
     1
 66
     7
176
     1
 43
1.0
176
     1
 76
     1
176
     1
 77
     6
176
     1
 78
     2
176
     1
 67
     7
176
     1
 79
     5
176
     1
170
     0
176
     1
171
     0
176
     1
290
     0
176
     1
 93
        1
176
     1
 44
-50.0
176
     1
173
     0
176
     1
  0
VISUALSTYLE
  5
39
102
{ACAD_REACTORS
330
2A
102
}
330
2A
100
AcDbVisualStyle
  2
Facepattern
 70
    15
177
     2
291
     1
 71
     2
176
     1
 72
     2
176
     1
 73
     0
176
     1
 90
        0
176
     1
 40
-0.6
176
     1
 41
-30.0
176
     1
 62
     5
 63
     7
421
 16777215
176
     1
 74
     1
176
     1
 91
        4
176
     1
 64
     7
176
     1
 65
   257
176
     1
 75
     1
176
     1
175
     1
176
     1
 42
1.0
176
     1
 92
        8
176
     1
 66
     7
176
     1
 43
1.0
176
     1
 76
     1
176
     1
 77
     6
176
     1
 78
     2
176
     1
 67
     7
176
     1
 79
     5
176
     1
170
     0
176
     1
171
     0
176
     1
290
     0
176
     1
 93
        1
176
     1
 44
0.0
176
     1
173
     0
176
     1
  0
VISUALSTYLE
  5
2B
102
{ACAD_REACTORS
330
2A
102
}
330
2A
100
AcDbVisualStyle
  2
Flat
 70
     0
177
     2
291
     1
 71
     2
176
     1
 72
     1
176
     1
 73
     1
176
     1
 90
        2
176
     1
 40
-0.6
176
     1
 41
30.0
176
     1
 62
     5
 63
     7
421
 16777215
176
     1
 74
     0
176
     1
 91
        4
176
     1
 64
     7
176
     1
 65
   257
176
     1
 75
     1
176
     1
175
     1
176
     1
 42
1.0
176
     1
 92
        8
176
     1
 66
     7
176
     1
 43
1.0
176
     1
 76
     1
176
     1
 77
     6
176
     1
 78
     2
176
     1
 67
     7
176
     1
 79
     5
176
     1
170
     0
176
     1
171
     0
176
     1
290
     0
176
     1
 93
       13
176
     1
 44
0.0
176
     1
173
     0
176
     1
  0
VISUALSTYLE
  5
2C
102
{ACAD_REACTORS
330
2A
102
}
330
2A
100
AcDbVisualStyle
  2
FlatWithEdges
 70
     1
177
     2
291
     1
 71
     2
176
     1
 72
     1
176
     1
 73
     1
176
     1
 90
        2
176
     1
 40
-0.6
176
     1
 41
30.0
176
     1
 62
     5
 63
     7
421
 16777215
176
     1
 74
     1
176
     1
 91
        4
176
     1
 64
     7
176
     1
 65
   257
176
     1
 75
     1
176
     1
175
     1
176
     1
 42
1.0
176
     1
 92
        0
176
     1
 66
   257
176
     1
 43
1.0
176
     1
 76
     1
176
     1
 77
     6
176
     1
 78
     2
176
     1
 67
     7
176
     1
 79
     5
176
     1
170
     0
176
     1
171
     0
176
     1
290
     0
176
     1
 93
       13
176
     1
 44
0.0
176
     1
173
     0
176
     1
  0
VISUALSTYLE
  5
2D
102
{ACAD_REACTORS
330
2A
102
}
330
2A
100
AcDbVisualStyle
  2
Gouraud
 70
     2
177
     2
291
     1
 71
     2
176
     1
 72
     2
176
     1
 73
     1
176
     1
 90
        2
176
     1
 40
-0.6
176
     1
 41
30.0
176
     1
 62
     5
 63
     7
421
 16777215
176
     1
 74
     0
176
     1
 91
        4
176
     1
 64
     7
176
     1
 65
   257
176
     1
 75
     1
176
     1
175
     1
176
     1
 42
1.0
176
     1
 92
        0
176
     1
 66
     7
176
     1
 43
1.0
176
     1
 76
     1
176
     1
 77
     6
176
     1
 78
     2
176
     1
 67
     7
176
     1
 79
     5
176
     1
170
     0
176
     1
171
     0
176
     1
290
     0
176
     1
 93
       13
176
     1
 44
0.0
176
     1
173
     0
176
     1
  0
VISUALSTYLE
  5
2E
102
{ACAD_REACTORS
330
2A
102
}
330
2A
100
AcDbVisualStyle
  2
GouraudWithEdges
 70
     3
177
     2
291
     1
 71
     2
176
     1
 72
     2
176
     1
 73
     1
176
     1
 90
        2
176
     1
 40
-0.6
176
     1
 41
30.0
176
     1
 62
     5
 63
     7
421
 16777215
176
     1
 74
     1
176
     1
 91
        4
176
     1
 64
     7
176
     1
 65
   257
176
     1
 75
     1
176
     1
175
     1
176
     1
 42
1.0
176
     1
 92
        0
176
     1
 66
   257
176
     1
 43
1.0
176
     1
 76
     1
176
     1
 77
     6
176
     1
 78
     2
176
     1
 67
     7
176
     1
 79
     5
176
     1
170
     0
176
     1
171
     0
176
     1
290
     0
176
     1
 93
       13
176
     1
 44
0.0
176
     1
173
     0
176
     1
  0
VISUALSTYLE
  5
38
102
{ACAD_REACTORS
330
2A
102
}
330
2A
100
AcDbVisualStyle
  2
Linepattern
 70
    14
177
     2
291
     1
 71
     2
176
     1
 72
     2
176
     1
 73
     0
176
     1
 90
        0
176
     1
 40
-0.6
176
     1
 41
-30.0
176
     1
 62
     5
 63
     7
421
 16777215
176
     1
 74
     1
176
     1
 91
        4
176
     1
 64
     7
176
     1
 65
   257
176
     1
 75
     7
176
     1
175
     7
176
     1
 42
1.0
176
     1
 92
        8
176
     1
 66
     7
176
     1
 43
1.0
176
     1
 76
     1
176
     1
 77
     6
176
     1
 78
     2
176
     1
 67
     7
176
     1
 79
     5
176
     1
170
     0
176
     1
171
     0
176
     1
290
     0
176
     1
 93
        1
176
     1
 44
0.0
176
     1
173
     0
176
     1
  0
VISUALSTYLE
  5
33
102
{ACAD_REACTORS
330
2A
102
}
330
2A
100
AcDbVisualStyle
  2
Realistic
 70
     8
177
     2
291
     0
 71
     2
176
     1
 72
     2
176
     1
 73
     0
176
     1
 90
        0
176
     1
 40
-0.6
176
     1
 41
-30.0
176
     1
 62
     5
 63
     7
421
 16777215
176
     1
 74
     1
176
     1
 91
        0
176
     1
 64
     7
176
     1
 65
   257
176
     1
 75
     1
176
     1
175
     1
176
     1
 42
1.0
176
     1
 92
        8
176
     1
 66
     8
424
  7895160
176
     1
 43
1.0
176
     1
 76
     1
176
     1
 77
     6
176
     1
 78
     2
176
     1
 67
     7
176
     1
 79
     5
176
     1
170
     0
176
     1
171
     0
176
     1
290
     0
176
     1
 93
       13
176
     1
 44
0.0
176
     1
173
     0
176
     1
  0
VISUALSTYLE
  5
37
102
{ACAD_REACTORS
330
2A
102
}
330
2A
100
AcDbVisualStyle
  2
Thicken
 70
    13
177
     2
291
     1
 71
     2
176
     1
 72
     2
176
     1
 73
     0
176
     1
 90
        0
176
     1
 40
-0.6
176
     1
 41
-30.0
176
     1
 62
     5
 63
     7
421
 16777215
176
     1
 74
     1
176
     1
 91
        4
176
     1
 64
     7
176
     1
 65
   257
176
     1
 75
     1
176
     1
175
     1
176
     1
 42
1.0
176
     1
 92
       12
176
     1
 66
     7
176
     1
 43
1.0
176
     1
 76
     1
176
     1
 77
     6
176
     1
 78
     2
176
     1
 67
     7
176
     1
 79
     5
176
     1
170
     0
176
     1
171
     0
176
     1
290
     0
176
     1
 93
        1
176
     1
 44
0.0
176
     1
173
     0
176
     1
  0
ENDSEC
  0
EOF
