<?xml version="1.0" encoding="utf-8"?>
<!-- Generator: Adobe Illustrator 22.1.0, SVG Export Plug-In . SVG Version: 6.00 Build 0)  -->
<svg version="1.1" id="Layer_1" xmlns="http://www.w3.org/2000/svg" xmlns:xlink="http://www.w3.org/1999/xlink" x="0px" y="0px"
	 viewBox="0 0 2000 2000" style="enable-background:new 0 0 2000 2000;" xml:space="preserve">
<style type="text/css">
	.st0{fill-rule:evenodd;clip-rule:evenodd;fill:#231F20;}
</style>
<path class="st0" d="M1117.2,1859c79.1,6.8,158.1,8.1,235.6-4.4c74.1-31.8,141.1-94.2,203.2-177.8c-26.6,55.1-57.7,105.2-97.1,146
	c161.4-82.7,237.7-310.2,77.2-480.9c-9.8-72.7,54.6-138.7-29.4-218c-0.8-0.9-1.6-1.8-2.4-2.6c-27.4-30.3-84.6-31.4-121.3-13.1
	c-40.6,20.2-72.6,17-87.8-33.1c8.2,114.2,116.1,23.6,152.5,75.2c-56.1-7.4-67.7,54.8-127.4,33.3c-63.9,4-83,53.3-100.5,105.2
	c-10,29.7-31.4,51-61.1,61c-29.8,9.9-59.6,5.8-85.5-11.9c-205.5-140.5-273.6-410.3-158.2-632c30.3-58.3,59.5-116.6,75-175.8
	c9.8-37.2,4.5-72.8-15.6-105.5c-20.1-32.8-49.4-53.5-87-61.7c-63.8-13.8-153-27-269.6-39.6c486.4-33.8,622.2,233.5,812.5,250
	c51.6,92.1,69,123.1,120.6,215.2c-25.5-74.7-51-149.4-76.5-224.1C1803.6,65,457.5-59,482.2,327.1c-203.6,179.7-82.3,568.5,80,983.7
	c50,262.6-8,454.4-152.8,589.2c220.8-164.7,214.6-367.4,192.9-592.2c27.5-162-256.8-554.1,42.4-483.1
	c91.8,21.8,192.9,180,136.6,375.8c-45.8,159.1-14.1,345.7,60.4,480.2c17.3,31.2,38.2,58.8,62.2,82.4
	c-25.6-55.4-40.8-116.4-50.3-180.5c31.2,95.5,71.1,175.9,123,234.8C1018.5,1840.4,1065.9,1854.6,1117.2,1859L1117.2,1859z
	 M1513.8,980.6c-73.1-124.1-72.9-204.6,1.9-201.2c-7.5,17.1-12.2,35.5-14.5,55c13.9,6.2,31.9,5.8,52.8,0.5
	c-21.7,11.4-40,17.1-54.3,15.9C1497.4,890.9,1503.7,934.9,1513.8,980.6L1513.8,980.6z M1387.1,740.6l-14.5,29.3l-59.9-13.3
	c-41.8-9.3-79.1-10.1-121.3-2.7l-132.3,23.3l101.8-37.4c59.9-22,117-25.3,179-10.5L1387.1,740.6L1387.1,740.6z M1353.5,807.6
	c-23.6,11.3-47.2,22.5-70.8,33.8l-20,35.9l-189.8-26.7C1174.5,788.4,1260,822,1353.5,807.6L1353.5,807.6z M631.2,872.3
	c-49.2-46.6-101.1,1.6-102.1,76.6C492.1,851.4,604,795.5,631.2,872.3L631.2,872.3z M732.9,1049.9c1.4,82.8-35.3,169.2-145.3,57.3
	C655,1128,699.1,1115.5,732.9,1049.9L732.9,1049.9z M598.7,1018.4c-53.5-37-70.7-114.3,48.8-109c-26.4,19.3-24.1,49.9,9.7,98.8
	C604.9,973.1,590,992.1,598.7,1018.4L598.7,1018.4z M1495.8,1340.9c-31.7-15.1-73.7-8.2-119.7,7.1c-37.7,12.6-77.5,0-101.2-31.9
	c-1.8-2.4-3.6-4.9-5.5-7.4C1384.8,1283,1529.6,1230.3,1495.8,1340.9z"/>
</svg>
